<svg xmlns="http://www.w3.org/2000/svg" viewBox="0 0 512 512">
  <defs>
    <linearGradient id="bg" x1="0%" y1="0%" x2="100%" y2="100%">
      <stop offset="0%" style="stop-color:#56ab78"/>
      <stop offset="100%" style="stop-color:#3d8a5b"/>
    </linearGradient>
  </defs>
  <rect width="512" height="512" rx="96" fill="url(#bg)"/>
  <g transform="translate(256,260)">
    <!-- Main leaf shape -->
    <path d="M0,-170 C-70,-130 -110,-40 -110,30 C-110,95 -62,145 0,145 C62,145 110,95 110,30 C110,-40 70,-130 0,-170 Z" fill="rgba(255,255,255,0.92)"/>
    <!-- Center vein -->
    <line x1="0" y1="-140" x2="0" y2="120" stroke="rgba(74,158,107,0.5)" stroke-width="4" stroke-linecap="round"/>
    <!-- Side veins -->
    <line x1="0" y1="-90" x2="-50" y2="-40" stroke="rgba(74,158,107,0.35)" stroke-width="2.5" stroke-linecap="round"/>
    <line x1="0" y1="-90" x2="50" y2="-40" stroke="rgba(74,158,107,0.35)" stroke-width="2.5" stroke-linecap="round"/>
    <line x1="0" y1="-40" x2="-65" y2="15" stroke="rgba(74,158,107,0.35)" stroke-width="2.5" stroke-linecap="round"/>
    <line x1="0" y1="-40" x2="65" y2="15" stroke="rgba(74,158,107,0.35)" stroke-width="2.5" stroke-linecap="round"/>
    <line x1="0" y1="15" x2="-55" y2="65" stroke="rgba(74,158,107,0.35)" stroke-width="2.5" stroke-linecap="round"/>
    <line x1="0" y1="15" x2="55" y2="65" stroke="rgba(74,158,107,0.35)" stroke-width="2.5" stroke-linecap="round"/>
    <!-- Stem -->
    <rect x="-4" y="120" width="8" height="55" rx="4" fill="rgba(255,255,255,0.92)"/>
  </g>
</svg>
